Coordinates
version=1
nRows=12
nColumns=24
inDegrees=yes

Units are S.I. units (second, meters, Newtons, ...)
Angles are in degrees.

endheader
time	pelvis_tilt	pelvis_list	pelvis_rotation	pelvis_tx	pelvis_ty	pelvis_tz	hip_flexion_r	hip_adduction_r	hip_rotation_r	knee_angle_r	ankle_angle_r	subtalar_angle_r	mtp_angle_r	hip_flexion_l	hip_adduction_l	hip_rotation_l	knee_angle_l	ankle_angle_l	subtalar_angle_l	mtp_angle_l	lumbar_extension	lumbar_bending	lumbar_rotation
      0.46500000	     -8.26540200	     -0.05310253	     -2.06267779	     -0.86517833	      1.02349812	      0.28679379	     37.72961504	      1.56379779	     -4.63036239	    -20.13386358	      7.35301050	      1.11534834	      8.28946228	      0.49796934	     -0.41470582	     -3.18138868	    -22.10576921	     28.03187357	     11.29201441	      4.36311206	     -5.07112025	     -2.16836286	     -0.14497746
      0.46916667	     -8.22562585	     -0.05521583	     -2.01802488	     -0.85870134	      1.02217455	      0.28704758	     37.74605523	      1.62411858	     -4.43626309	    -20.32836204	      7.31299227	      0.88187355	      8.29310512	      0.33947541	     -0.48813264	     -3.44849862	    -22.72498680	     28.16788675	     11.69058577	      4.41567229	     -5.10593847	     -2.08987764	     -0.31543055
      0.47333333	     -8.17665135	     -0.06677936	     -1.98123953	     -0.85216416	      1.02090299	      0.28730747	     37.74536098	      1.69917347	     -4.23381949	    -20.59945209	      7.26765229	      0.62883673	      8.29635069	      0.18738520	     -0.57900346	     -3.73145867	    -23.38863850	     28.27596269	     12.11189081	      4.50467748	     -5.14179547	     -2.01959979	     -0.28630816
      0.47750000	     -8.10873832	     -0.09246823	     -1.94184988	     -0.84559858	      1.01969531	      0.28756858	     37.71603490	      1.78830752	     -4.03087162	    -20.93755998	      7.21347387	      0.34965530	      8.29968765	      0.04028484	     -0.69428397	     -4.01774512	    -24.11491431	     28.35489567	     12.55726471	      4.63807038	     -5.20174658	     -1.92063693	     -0.27379046
      0.48166667	     -8.01975638	     -0.11386188	     -1.90363234	     -0.83903110	      1.01855185	      0.28783766	     37.66409694	      1.87617319	     -3.81826406	    -21.34943195	      7.15928553	      0.06051257	      8.30297126	     -0.10287168	     -0.81534508	     -4.32062925	    -24.88785089	     28.38138437	     13.01570176	      4.81033575	     -5.28315149	     -1.82953246	     -0.26142745
      0.48583333	     -7.95601936	     -0.14764521	     -1.85831927	     -0.83240485	      1.01740923	      0.28810300	     37.62726403	      1.97533156	     -3.61068047	    -21.81393352	      7.08497102	     -0.27162916	      8.30604974	     -0.18618961	     -0.96181633	     -4.61728220	    -25.74109884	     28.37218900	     13.49203338	      5.04376644	     -5.32322659	     -1.71184554	     -0.24764842
      0.49000000	     -7.85688598	     -0.17939746	     -1.81956703	     -0.82577083	      1.01635934	      0.28838062	     37.55113411	      2.07742944	     -3.38953674	    -22.33790205	      7.01178727	     -0.61300889	      8.30877149	     -0.29078096	     -1.11395776	     -4.91917393	    -26.62996940	     28.30434601	     13.97964610	      5.32363492	     -5.40802954	     -1.59596467	     -0.23426520
      0.49416667	     -7.75705742	     -0.21976880	     -1.77967071	     -0.81911377	      1.01535174	      0.28866944	     37.46817516	      2.18920251	     -3.17484367	    -22.90995879	      6.92969570	     -0.98570808	      8.31128275	     -0.35646461	     -1.28853217	     -5.22265394	    -27.59904159	     28.18547524	     14.47960312	      5.69207477	     -5.48625943	     -1.46646076	     -0.21490501
      0.49833333	     -7.64871238	     -0.23947555	     -1.73502334	     -0.81247143	      1.01441994	      0.28895231	     37.37639708	      2.28216370	     -2.93809477	    -23.52899089	      6.84976999	     -1.39589405	      8.35139159	     -0.41122798	     -1.43908477	     -5.46445327	    -28.58444162	     27.87598223	     14.84216144	      9.86929255	     -5.58029171	     -1.35976294	     -0.15100304
      0.50250000	     -7.54751821	     -0.23552207	     -1.68960711	     -0.80583930	      1.01349671	      0.28923922	     37.30809269	      2.34860871	     -2.71891333	    -24.22705665	      6.84565829	     -1.71240934	      8.34780582	     -0.41734081	     -1.57378981	     -5.69871043	    -29.65531551	     27.60028489	     15.30172554	      9.92762741	     -5.66656907	     -1.26515238	     -0.19293468
      0.50666667	     -7.44388691	     -0.27443106	     -1.64936355	     -0.79916071	      1.01264261	      0.28956261	     37.21123910	      2.46566662	     -2.48840945	    -24.91250991	      6.76825908	     -2.13011888	      8.33707024	     -0.38925452	     -1.78169251	     -5.99009782	    -30.81026111	     27.28278161	     15.82025273	     10.04682960	     -5.74145979	     -1.12218783	     -0.18603529
      0.51083333	     -7.32428387	     -0.32121008	     -1.61716812	     -0.79250503	      1.01186165	      0.28990678	     37.09707200	      2.59412193	     -2.26949475	    -25.62579285	      6.67719535	     -2.55528663	      8.31858544	     -0.34108707	     -2.01232344	     -6.30023937	    -32.03724903	     26.91639935	     16.30287965	     10.26392354	     -5.82876865	     -0.98236260	     -0.16975022
